<mxfile host="65bd71144e">
    <diagram id="WEDmSpOQhkj3ef7YcD0W" name="Page-1">
        <mxGraphModel dx="1121" dy="553" grid="1" gridSize="10" guides="1" tooltips="1" connect="1" arrows="1" fold="1" page="1" pageScale="1" pageWidth="827" pageHeight="1169" math="1" shadow="0">
            <root>
                <mxCell id="0"/>
                <mxCell id="1" parent="0"/>
                <mxCell id="20" value="" style="whiteSpace=wrap;html=1;fontSize=20;fillColor=#E8E8E8;opacity=50;" parent="1" vertex="1">
                    <mxGeometry x="180" y="140" width="390" height="360" as="geometry"/>
                </mxCell>
                <mxCell id="4" value="" style="ellipse;whiteSpace=wrap;html=1;fillColor=#d5e8d4;strokeColor=#82b366;opacity=50;" parent="1" vertex="1">
                    <mxGeometry x="200" y="260" width="230" height="220" as="geometry"/>
                </mxCell>
                <mxCell id="5" value="" style="ellipse;whiteSpace=wrap;html=1;fillColor=#f8cecc;strokeColor=#b85450;opacity=50;" parent="1" vertex="1">
                    <mxGeometry x="255" y="160" width="230" height="230" as="geometry"/>
                </mxCell>
                <mxCell id="6" value="" style="ellipse;whiteSpace=wrap;html=1;fillColor=#dae8fc;strokeColor=#6c8ebf;opacity=50;" parent="1" vertex="1">
                    <mxGeometry x="320" y="260" width="230" height="220" as="geometry"/>
                </mxCell>
                <mxCell id="8" value="&lt;font style=&quot;font-size: 20px;&quot;&gt;task 1&lt;/font&gt;" style="text;strokeColor=#82b366;align=center;fillColor=#d5e8d4;html=1;verticalAlign=middle;whiteSpace=wrap;rounded=0;opacity=50;" parent="1" vertex="1">
                    <mxGeometry x="84" y="340" width="86" height="40" as="geometry"/>
                </mxCell>
                <mxCell id="9" value="&lt;font style=&quot;font-size: 20px;&quot;&gt;task 2&lt;/font&gt;" style="text;strokeColor=#b85450;align=center;fillColor=#f8cecc;html=1;verticalAlign=middle;whiteSpace=wrap;rounded=0;opacity=50;" parent="1" vertex="1">
                    <mxGeometry x="328" y="90" width="86" height="40" as="geometry"/>
                </mxCell>
                <mxCell id="10" value="&lt;font style=&quot;font-size: 20px;&quot;&gt;task 3&lt;/font&gt;" style="text;strokeColor=#6c8ebf;align=center;fillColor=#dae8fc;html=1;verticalAlign=middle;whiteSpace=wrap;rounded=0;opacity=50;" parent="1" vertex="1">
                    <mxGeometry x="580" y="340" width="86" height="40" as="geometry"/>
                </mxCell>
                <mxCell id="13" value="`\theta_1`" style="text;strokeColor=none;align=center;fillColor=none;html=1;verticalAlign=middle;whiteSpace=wrap;rounded=0;fontSize=20;opacity=50;" parent="1" vertex="1">
                    <mxGeometry x="248" y="370" width="60" height="30" as="geometry"/>
                </mxCell>
                <mxCell id="14" value="`\theta_{12}`" style="text;strokeColor=none;align=center;fillColor=none;html=1;verticalAlign=middle;whiteSpace=wrap;rounded=0;fontSize=20;opacity=50;" parent="1" vertex="1">
                    <mxGeometry x="268" y="290" width="60" height="30" as="geometry"/>
                </mxCell>
                <mxCell id="15" value="`\theta_2`" style="text;strokeColor=none;align=center;fillColor=none;html=1;verticalAlign=middle;whiteSpace=wrap;rounded=0;fontSize=20;opacity=50;" parent="1" vertex="1">
                    <mxGeometry x="340" y="210" width="60" height="30" as="geometry"/>
                </mxCell>
                <mxCell id="18" value="`\theta_{23}`" style="text;strokeColor=none;align=center;fillColor=none;html=1;verticalAlign=middle;whiteSpace=wrap;rounded=0;fontSize=20;opacity=50;" parent="1" vertex="1">
                    <mxGeometry x="405" y="280" width="60" height="30" as="geometry"/>
                </mxCell>
                <mxCell id="21" value="`\theta_{123}`" style="text;strokeColor=none;align=center;fillColor=none;html=1;verticalAlign=middle;whiteSpace=wrap;rounded=0;fontSize=20;opacity=50;" parent="1" vertex="1">
                    <mxGeometry x="341" y="330" width="60" height="30" as="geometry"/>
                </mxCell>
                <mxCell id="22" value="`\theta_{3}`" style="text;strokeColor=none;align=center;fillColor=none;html=1;verticalAlign=middle;whiteSpace=wrap;rounded=0;fontSize=20;opacity=50;" parent="1" vertex="1">
                    <mxGeometry x="450" y="380" width="60" height="30" as="geometry"/>
                </mxCell>
                <mxCell id="23" value="`\theta_{13}`" style="text;strokeColor=none;align=center;fillColor=none;html=1;verticalAlign=middle;whiteSpace=wrap;rounded=0;fontSize=20;opacity=50;" parent="1" vertex="1">
                    <mxGeometry x="345" y="400" width="60" height="30" as="geometry"/>
                </mxCell>
                <mxCell id="24" value="network" style="text;strokeColor=none;align=center;fillColor=none;html=1;verticalAlign=middle;whiteSpace=wrap;rounded=0;fontSize=20;opacity=50;" parent="1" vertex="1">
                    <mxGeometry x="490" y="150" width="60" height="30" as="geometry"/>
                </mxCell>
            </root>
        </mxGraphModel>
    </diagram>
</mxfile>